# xmcd CD database file
#
# Track frame offsets:
#	150
#	14476
#	36486
#	57940
#
# Disc length: 964 seconds
#
# Revision: 0
# Processed by: cddbd v1.5.1PL0 Copyright (c) Steve Scherf et al.
# Submitted via: CDex 1.51
#
DISCID=3103c204
DTITLE=玉置成実 - 大胆にいきましょう↑Heart ＆ Soul↑
DYEAR=2004
DGENRE=JPop
TTITLE0=大胆にいきましょう↑Heart ＆ Soul↑
TTITLE1=Distance
TTITLE2=Special Birthday
TTITLE3=大胆にいきましょう↑Heart ＆ Soul↑-Instrumental-
EXTD=YEAR: 2004.07.14
EXTT0=
EXTT1=
EXTT2=
EXTT3=
PLAYORDER=
